<?xml version="1.0" encoding="utf-8"?>
<!-- Generator: Adobe Illustrator 18.0.0, SVG Export Plug-In . SVG Version: 6.00 Build 0)  -->
<!DOCTYPE svg PUBLIC "-//W3C//DTD SVG 1.1//EN" "http://www.w3.org/Graphics/SVG/1.1/DTD/svg11.dtd">
<svg version="1.1" id="Layer_1" xmlns="http://www.w3.org/2000/svg" xmlns:xlink="http://www.w3.org/1999/xlink" x="0px" y="0px"
	 width="1400px" height="980px" viewBox="0 0 1400 980" enable-background="new 0 0 1400 980" xml:space="preserve">
<g>
	<rect fill="#FEC36D" width="1400" height="980"/>
	<path fill="#FFECCE" d="M0,355.6l0,127.9h458.4c0,0-70.8-97.3-113.9-51.8c-27.1,28.6-76.6,36.4-109.4,0
		c-33.7-37.4-79.7-104.5-139.7-72.6C46.8,385,20.4,380.5,0,355.6z"/>
	<path fill="#C87A29" d="M0,605c0,0,41.9,4,88.6-85.7c76.1-146.3,183.9-131,252.2,17.7S491.1,638,536.6,564.8
		C712.5,281.4,832.9,790.7,1002.5,728v252H0V605z"/>
	<path fill="#EB9B30" d="M128.1,931.2c0,0,70.2,46.9,201.2-109.3C385.5,755.1,472.3,676,559.3,713c93.8,39.9,108,113.9,200.6,117.7
		c92.7,3.8,167-143.6,207.7-215.9c83.8-149,262.4-296.5,432.4,0V980H119.8L128.1,931.2z"/>
	<path fill="#FFECCE" d="M86.6,208.8c0,0,9.4-14,27.7-7c18.3,7,23.5-5.9,32.3-11.8c8-5.4,16.9-6.2,34.1,18.8H86.6z"/>
	<g>
		<g>
			<path fill="#3A3A3A" d="M0,891.6c0,0,55.6-32.9,119.8,0c37.2,19,61.4,42.5,105.2,38.8c45.7-3.9,87.6-23,128.1-43
				c90.2-44.5,192.1-75.3,293.4-59.1c50.5,8.1,96.8,31.1,146.5,42.9c66.1,15.7,135.2,19.8,202.4,10c44-6.5,86.5-20.9,127.1-38.6
				c37.5-16.3,72.4-39.6,112.8-48.2c52.8-11.1,112.7-9.4,164.6,6.2V980H0V891.6z"/>
		</g>
		<g>
			<g>
				<path fill="#3A3A3A" d="M255.3,931.2c-1-25.6-15.1-28.2-15.7-28.3l1-6.9c0.8,0.1,20.5,3.2,21.7,35L255.3,931.2z"/>
			</g>
			<g>
				<path fill="#3A3A3A" d="M258.7,926.9c-6.5-21.5-0.8-43.2-0.6-44.2l6.8,1.8l-3.4-0.9l3.4,0.9c-0.1,0.2-5.4,20.8,0.5,40.3
					L258.7,926.9z"/>
			</g>
		</g>
		<g>
			<g>
				<path fill="#3A3A3A" d="M1135.8,857.2c-1-25.6-15.1-28.2-15.7-28.3l1-6.9c0.8,0.1,20.5,3.2,21.7,35L1135.8,857.2z"/>
			</g>
			<g>
				<path fill="#3A3A3A" d="M1139.1,852.8c-6.5-21.5-0.8-43.2-0.6-44.2l6.8,1.8l-3.4-0.9l3.4,0.9c-0.1,0.2-5.4,20.8,0.5,40.3
					L1139.1,852.8z"/>
			</g>
		</g>
		<g>
			
				<rect x="1297.3" y="697.2" transform="matrix(0.9567 0.291 -0.291 0.9567 279.031 -345.1598)" fill="#3A3A3A" width="5" height="136.4"/>
		</g>
		<g>
			<path fill="#3A3A3A" d="M1314.1,719.1c0,0,43.9-18,52.2,0C1375.6,739.2,1314.1,719.1,1314.1,719.1z"/>
		</g>
		<g>
			<path fill="#3A3A3A" d="M1300.4,763.9c0,0-27.1-61-49.2-49.5C1223.5,728.9,1300.4,763.9,1300.4,763.9z"/>
		</g>
		<g>
			<path fill="#3A3A3A" d="M1292.4,789.3c0,0,65.9-45.2,81.3-19.6C1393,801.8,1292.4,789.3,1292.4,789.3z"/>
		</g>
		<g>
			<path fill="#3A3A3A" d="M1317.7,700.2c0,0-24.2-19.3-17.2-24.8c5.8-4.5,18.5,17.7,21.6,25.1
				C1322.7,702.1,1317.7,700.2,1317.7,700.2z"/>
		</g>
		<g>
			<path fill="#3A3A3A" d="M63.5,868.4c0,0-9.5-3.8-19.9-7s-16.2-17.2-6.1-20.4c10.2-3.2,12.9-7.4,3.5-22.7
				c-9.4-15.4,34.8-21.4,33.3-1.2c-1.5,20.2,3.8,11.4,11.5,13.6s-2.7,24.9-9.7,32.9C69.2,871.5,63.5,868.4,63.5,868.4z"/>
		</g>
		<g>
			<path fill="#3A3A3A" d="M72.5,898.6l-7-0.4c1.1-18.7-4.8-49.8-4.9-50.1l6.9-1.3C67.8,848.1,73.7,879.1,72.5,898.6z"/>
		</g>
	</g>
	<circle fill="#FFFFFF" cx="439.6" cy="234.3" r="79.6"/>
	<path fill="#3A3A3A" d="M950.3,579.5h-5.7l3.3-16.7l-16.5-3.3l-4,20h-10.2l-6.4,9.6l-70.6-7.8l1.4-8.4l-53.9-39.5l-8.3-1.8
		c8.5-2.1,8.6-7.8,8.8-16.3c0.3-11.4-0.3-12.4-0.3-12.4l7.8-1.2l-3.5-29.2l22.9,1.6l0.4-6.1l-16.4-1.1l-19-28.5l-30.5-2.1L729,462.3
		l5.8,0.4c0,0,0,0,0,0l-22.3-1.5l-0.4,6.1l20.3,1.4c-6.4,18.3-0.7,28.9,2.3,33.1l-10.3,18l-10.7-2.4c0,0-49-14.9-74.7,0
		c0,0-42.4,79.1-39.1,134.4c0,0,28.6,29.1,67,25.7l-8,34.3l6.8,33.7l11.6,4.6l2.4,11.6l-133.6,62.1l3.6,7.6l94.1-43.8L624,800.2
		l30.7,29.6l33.1,8.2l-10.5-19.1l58.7-25.3l0.2-20.3l10.6,4.2l5-19.1l0,0l-1.1,4.2l17.2,29.2l8.4-2.8l16.6,21.2l-13.5,57.6l59.4,16
		l-14.4-17l22.9-58.6l-15.2-37.6l9.5-3.1l-16.9-42.3l14.5-7l-7.4-14.7l9.8-4.9l-7.9-14.8l-9.5,4.5l-3.1-6.1l-13.8,6.9l-19-38.8
		l40.4,1.8l1.8-10.7l80.5-9.1v1.1h10.1l-51,255.4l8.3,1.7l51.4-257h20.7V579.5z"/>
	<path fill="#FFECCE" d="M1033,242.3c0,0,13.9-31.7,36.2-22.8c24.4,9.7,19.9-1.8,38.4-33.4c19.1-32.6,32.9-12.2,49.4,17.9
		c18.8,34.3,32.2-21.2,50.9-55.1c21.8-39.7,45.9-5.3,65.6,43.1s41.1,32.4,60.8,50.4H1033z"/>
	<path fill="#FFECCE" d="M700,321c0,0,16.4-27,30.5-11.5s32.3-6.7,35.4-15c4.4-11.7,23.9-30.6,40.3-3.1s21.7,23,35,12.8
		S870.3,310,877,321L700,321z"/>
</g>
</svg>
